<?xml version="1.0" encoding="utf-8"?>
<!-- Generator: Adobe Illustrator 19.2.1, SVG Export Plug-In . SVG Version: 6.00 Build 0)  -->
<svg version="1.1" id="Capa_1" xmlns="http://www.w3.org/2000/svg" xmlns:xlink="http://www.w3.org/1999/xlink" x="0px" y="0px"
	 viewBox="0 0 209.5 59" style="enable-background:new 0 0 209.5 59;" xml:space="preserve">
<style type="text/css">
	.st0{fill:#00924D;}
</style>
<g id="XMLID_5553_">
	<path id="XMLID_5477_" class="st0" d="M84.2,29.5c0,2.5,2,4.5,4.5,4.5c2.5,0,4.5-2,4.5-4.5c0-2.5-2-4.5-4.5-4.5
		C86.2,25,84.2,27,84.2,29.5"/>
	<path id="XMLID_5471_" class="st0" d="M15.4,2.7c7.6,0,18.3,1.1,18.3,13.7c0,7.8-5,10.3-8,11.8c3.7,1,9.8,3.9,9.8,12.9
		c0,13.1-9.3,15.2-19.4,15.2H3.2c-1.3,0-1.6-0.3-1.6-1.6V4.3c0-1.4,0.3-1.6,1.6-1.6H15.4z M14.5,24.9c4.6,0,8.5-1.2,8.5-7.4
		c0-4.9-3.4-6.6-7.7-6.6h-3.3v14H14.5z M14.9,48.1c5.4,0,10-0.9,10-7.6c0-6.6-4.5-7.4-9.8-7.4h-3v15H14.9z"/>
	<path id="XMLID_5467_" class="st0" d="M54.5,54.6c0,1.4-0.3,1.6-1.6,1.6h-7.3c-1.3,0-1.6-0.2-1.6-1.6V4.2c0-1.4,0.3-1.6,1.6-1.6
		h12.7c6,0,18.3,0.4,18.3,15.1c0,10.1-6,13-8.9,14.5l11,19.9c0.2,0.4,0.6,1,0.6,1.5c0,0.5-0.8,0.7-1.6,0.9l-6.6,1.9
		c-0.3,0.1-0.8,0.2-1.1,0.2c-0.4,0-1-0.9-1.8-2.4l-9.9-20h-3.8V54.6z M56.5,25.8c5.1,0,9.4-0.8,9.4-8c0-6.8-4.5-7.1-8.5-7.1h-2.9v15
		H56.5z"/>
	<path id="XMLID_5464_" class="st0" d="M140.6,52.5c0-0.4-0.2-0.9-0.5-1.5c-0.8-1.8-2.2-4.8-2.2-12V18.7c0-11-5.3-16-17.1-16
		c-9.2,0-17.5,2.9-17.5,4c0,0.3,0.1,0.5,0.2,0.8c0,0,0,0.1,0.1,0.1c0.4,1.1,2.1,6.4,2.1,6.5c0,0.1,0.1,0.3,0.2,0.3
		c0.3,0,1.3-0.4,2.1-0.7c0,0,0,0,0,0c2.6-1,6.6-2.4,10.8-2.4c7.8,0,8.4,4.3,8.4,8.7v3.3c0,0.5-0.4,1-1,1c-7.9,0-26.5,0-26.5,16.8
		c0,9.4,5.7,15.2,14.8,15.2c1.4,0,2.6-0.1,3.7-0.4c4.8-0.9,7.5-3.7,9.2-5.4l0.4-0.4c0.1-0.1,0.1-0.1,0.2-0.1c0.1,0,0.3,0,0.4,0
		c0.1,0,0.2,0.1,0.3,0.2c0.1,0.1,0.1,0.2,0.1,0.3c0.5,2.6,1.9,5.5,2.5,5.8c0.1,0,0.2-0.1,0.4-0.1c0.2-0.1,0.3-0.1,0.5-0.2l0,0
		c0,0,0,0,0,0h0c8-3.3,8-3.3,8-3.3C140.5,52.6,140.6,52.6,140.6,52.5 M110.5,40.3c0-2.5,0.8-4.5,2.4-6c3.6-3.5,10-3.4,12.8-3.4
		l0.6,0c0.5,0,1,0.4,1,1v11.6c0,0.3-0.1,0.5-0.3,0.7c-1.3,1.3-4.3,4.3-8.6,4.3C113.9,48.4,110.5,45,110.5,40.3"/>
	<g id="XMLID_5549_">
		<path id="XMLID_5460_" class="st0" d="M152.8,16.1c1.2,0,3.3,0.1,3.3,2.7c0,1.7-1.1,2.4-1.6,2.7c0.8,0.2,2,0.8,2,2.8
			c0,1.4-0.7,2.1-1.1,2.5c-0.6,0.5-1.6,0.6-2.9,0.6h-2.4c-0.1,0-0.2-0.1-0.2-0.2V16.3c0-0.1,0.1-0.2,0.2-0.2H152.8z M152.4,21.1
			c0.9,0,2.2-0.2,2.2-2.1c0-1.5-0.9-1.7-1.8-1.7h-1.5v3.8H152.4z M152.8,26.2c1.1,0,2.1-0.4,2.1-2c0-1.6-1.1-2-2.2-2h-1.5v4H152.8z"
			/>
		<path id="XMLID_5457_" class="st0" d="M164.4,26.6c0,0,0,0.1,0,0.1c0,0.2-1.4,0.9-2.6,0.9c-2.2,0-3.5-1.7-3.5-4.2
			c0-2.4,1.2-4.2,3.2-4.2c2.7,0,3,2.7,3,4.1c0,0.2,0,0.4-0.2,0.4h-4.7c0,1,0.4,2.8,2.3,2.8c1.1,0,1.9-0.7,2-0.7c0,0,0.1,0,0.1,0.1
			L164.4,26.6z M163.3,22.7c0-0.9-0.3-2.4-1.7-2.4c-1.5,0-1.8,1.6-1.8,2.4H163.3z"/>
		<path id="XMLID_5456_" class="st0" d="M172.7,27.1c0,0.1-0.1,0.2-0.2,0.2h-0.9c-0.1,0-0.2-0.1-0.2-0.2v-5.5c0-0.7-0.2-1.3-1.1-1.3
			c-1.1,0-1.8,0.6-2.2,1v5.8c0,0.1-0.1,0.2-0.2,0.2h-0.9c-0.1,0-0.2-0.1-0.2-0.2v-5.6c0-0.5,0-0.7-0.1-1c-0.1-0.5-0.3-0.6-0.3-0.7
			c0,0,0-0.1,0.1-0.1l0.7-0.4c0,0,0.1-0.1,0.1-0.1c0.3,0,0.5,1,0.5,1.1c0.5-0.4,1.4-1.1,2.6-1.1c1.8,0,1.9,1.3,1.9,2.5V27.1z"/>
		<path id="XMLID_5453_" class="st0" d="M177.4,27.1c0,0.1-0.1,0.2-0.2,0.2h-0.9c-0.1,0-0.2-0.1-0.2-0.2v-6.6h-1.3
			c-0.1,0-0.2-0.1-0.2-0.2v-0.6c0-0.1,0.1-0.2,0.2-0.2h2.3c0.2,0,0.2,0.1,0.2,0.2V27.1z M176.7,17.6c-0.6,0-1-0.4-1-1
			c0-0.6,0.4-1,1-1s1,0.5,1,1C177.7,17.1,177.2,17.6,176.7,17.6"/>
		<path id="XMLID_5452_" class="st0" d="M184.8,26.7c0,0.1,0,0.1,0,0.2c0,0.2-1.2,0.7-2.1,0.7c-0.7,0-1.3-0.3-1.5-0.6
			c-0.5-0.5-0.5-1.2-0.5-1.8v-4.6h-1.2c-0.1,0-0.1-0.1-0.1-0.2v-0.6c0-0.1,0-0.2,0.1-0.2h1.2v-2.2c0-0.1,0.1-0.2,0.2-0.2l0.9-0.2
			c0,0,0.1,0,0.1,0c0.1,0,0.1,0.1,0.1,0.2v2.5h2.4c0.1,0,0.2,0,0.2,0.1c0,0,0,0.1,0,0.1l-0.2,0.6c0,0.1-0.1,0.1-0.2,0.1H182v4.6
			c0,0.7,0,1.3,1,1.3c0.8,0,1.4-0.4,1.6-0.4c0.1,0,0.1,0,0.1,0.1L184.8,26.7z"/>
		<path id="XMLID_5446_" class="st0" d="M189.2,27.6c-2.2,0-3.2-1.8-3.2-4.1c0-2.3,0.9-4.2,3.3-4.2c2.2,0,3.2,1.8,3.2,4.1
			C192.6,25.7,191.6,27.6,189.2,27.6 M191.2,23.3c0-1.6-0.4-3.1-1.9-3.1c-1.5,0-1.9,1.4-1.9,3c0,1.9,0.4,3.3,1.9,3.3
			C190.8,26.6,191.2,25.2,191.2,23.3"/>
	</g>
	<g id="XMLID_5550_">
		<path id="XMLID_5443_" class="st0" d="M156.5,41.7c0,0.1,0.1,0.1,0.1,0.2c0,0-0.1,0.1-0.2,0.1l-1,0.2c-0.1,0-0.2,0-0.2-0.1
			l-2.7-5.2h-1.2v4.9c0,0.1-0.1,0.2-0.2,0.2h-0.9c-0.1,0-0.2-0.1-0.2-0.2V31c0-0.1,0.1-0.2,0.2-0.2h2.5c1.3,0,3.3,0.1,3.3,3
			c0,1.8-1.3,2.7-2.2,3L156.5,41.7z M152.3,35.8c1.2,0,2.3-0.3,2.3-2c0-1.8-1.2-1.9-2.1-1.9h-1.3v3.9H152.3z"/>
		<path id="XMLID_5440_" class="st0" d="M161,42.2c-2.2,0-3.2-1.8-3.2-4.1c0-2.3,0.9-4.2,3.3-4.2c2.2,0,3.2,1.8,3.2,4.1
			C164.4,40.3,163.4,42.2,161,42.2 M163,38c0-1.6-0.4-3.1-1.9-3.1c-1.5,0-1.9,1.4-1.9,3c0,1.9,0.4,3.3,1.9,3.3
			C162.6,41.2,163,39.9,163,38"/>
		<path id="XMLID_5435_" class="st0" d="M172.3,38.8c0,0.9,0.1,2.8,0.1,3.7c0,1.5-0.7,2.9-2.9,2.9c-1.2,0-2.7-0.6-2.7-0.9
			c0-0.1,0-0.1,0.1-0.2l0.3-0.6c0-0.1,0-0.1,0.1-0.1c0.1,0,1.1,0.6,2.2,0.6c1.5,0,1.7-0.9,1.7-1.8c0-0.8,0-1.5,0-1.7
			c-0.4,0.3-1.1,0.9-2.2,0.9c-1.5,0-2.5-1.3-2.5-3.6c0-2.6,1-4.3,3.1-4.3c1.1,0,1.7,0.5,1.9,0.7c0.1-0.4,0.3-0.7,0.5-0.7
			c0.1,0,0.1,0,0.1,0l0.7,0.5c0.1,0,0.1,0.1,0.1,0.1c0,0.1-0.1,0.2-0.3,0.6c-0.1,0.4-0.2,0.6-0.2,1.2V38.8z M171.1,35.4
			c-0.3-0.1-0.9-0.4-1.5-0.4c-1.2,0-1.8,1.1-1.8,2.8c0,1.7,0.3,2.8,1.4,2.8c0.9,0,1.5-0.6,1.9-0.8V35.4z"/>
		<path id="XMLID_5430_" class="st0" d="M180.6,38.8c0,0.9,0.1,2.8,0.1,3.7c0,1.5-0.7,2.9-2.9,2.9c-1.2,0-2.8-0.6-2.8-0.9
			c0-0.1,0-0.1,0.1-0.2l0.3-0.6c0-0.1,0-0.1,0.1-0.1c0.1,0,1.1,0.6,2.2,0.6c1.5,0,1.7-0.9,1.7-1.8c0-0.8,0-1.5,0-1.7
			c-0.4,0.3-1.1,0.9-2.2,0.9c-1.5,0-2.5-1.3-2.5-3.6c0-2.6,1-4.3,3.1-4.3c1.1,0,1.7,0.5,1.9,0.7c0.1-0.4,0.3-0.7,0.5-0.7
			c0.1,0,0.1,0,0.1,0l0.7,0.5c0.1,0,0.1,0.1,0.1,0.1c0,0.1-0.1,0.2-0.3,0.6c-0.1,0.4-0.2,0.6-0.2,1.2V38.8z M179.4,35.4
			c-0.3-0.1-0.9-0.4-1.5-0.4c-1.2,0-1.8,1.1-1.8,2.8c0,1.7,0.3,2.8,1.4,2.8c0.9,0,1.5-0.6,1.9-0.8V35.4z"/>
		<path id="XMLID_5427_" class="st0" d="M185.7,41.8c0,0.1-0.1,0.2-0.2,0.2h-0.9c-0.1,0-0.2-0.1-0.2-0.2v-6.6h-1.3
			c-0.1,0-0.2-0.1-0.2-0.2v-0.6c0-0.1,0.1-0.2,0.2-0.2h2.3c0.2,0,0.2,0.1,0.2,0.2V41.8z M185,32.3c-0.6,0-1-0.4-1-1c0-0.6,0.4-1,1-1
			c0.6,0,1,0.5,1,1C186,31.8,185.5,32.3,185,32.3"/>
		<path id="XMLID_5424_" class="st0" d="M191.3,42.2c-2.2,0-3.2-1.8-3.2-4.1c0-2.3,1-4.2,3.3-4.2c2.2,0,3.2,1.8,3.2,4.1
			C194.6,40.3,193.6,42.2,191.3,42.2 M193.3,38c0-1.6-0.4-3.1-1.9-3.1c-1.5,0-1.9,1.4-1.9,3c0,1.9,0.4,3.3,1.9,3.3
			C192.8,41.2,193.3,39.9,193.3,38"/>
	</g>
	<g id="XMLID_5551_">
		<path id="XMLID_5421_" class="st0" d="M153.9,56.4c0,0-0.1,0.1-0.2,0.1c-0.1,0-0.3-0.4-0.4-0.7c-0.2,0.2-0.7,0.7-1.6,0.7
			c-1.1,0-1.9-0.7-1.9-1.9c0-2.1,2.3-2.1,3.2-2.1v-0.4c0-0.6-0.1-0.9-0.9-0.9c-0.7,0-1.4,0.4-1.5,0.4c-0.1,0-0.1-0.1-0.1-0.1
			l-0.2-0.8c0,0,0-0.1,0-0.1c0-0.3,1.2-0.6,2.2-0.6c1.5,0,2.1,0.7,2.1,2v2.4c0,1.2,0.3,1.4,0.3,1.6c0,0,0,0.1-0.1,0.1L153.9,56.4z
			 M153.1,53.5c-0.3,0-1.7-0.1-1.7,1c0,0.5,0.3,0.8,0.8,0.8c0.5,0,0.8-0.3,0.9-0.5V53.5z"/>
		<path id="XMLID_5420_" class="st0" d="M164.9,56.1c0,0.1,0,0.2-0.2,0.2h-1.2c-0.1,0-0.2,0-0.2-0.2v-3.8c0-0.5,0-1-0.5-1
			c-0.5,0-0.9,0.4-1.1,0.5v4.3c0,0.1,0,0.2-0.2,0.2h-1.2c-0.1,0-0.2,0-0.2-0.2v-3.8c0-0.5,0-1-0.5-1c-0.5,0-0.9,0.4-1.1,0.5v4.3
			c0,0.1,0,0.2-0.2,0.2h-1.2c-0.1,0-0.2,0-0.2-0.2v-3.7c0-1.7-0.2-1.6-0.2-1.9c0-0.1,0-0.1,0.1-0.1l0.9-0.3c0.1,0,0.1,0,0.2,0
			c0.2,0,0.3,0.3,0.4,0.9c0.4-0.3,0.9-0.9,1.9-0.9c0.5,0,1.1,0.3,1.3,0.9c0.4-0.3,0.9-0.9,1.9-0.9c1.2,0,1.4,0.9,1.4,2V56.1z"/>
		<path id="XMLID_5417_" class="st0" d="M168.8,50.5c0.2-0.2,0.7-0.5,1.4-0.5c1.7,0,2.2,1.5,2.2,3.1c0,2.1-0.9,3.4-2.6,3.4
			c-0.7,0-1-0.3-1.2-0.5c0,0.1-0.2,0.5-0.4,0.5c-0.1,0-0.1,0-0.2,0l-1-0.2c-0.1,0-0.1-0.1-0.1-0.1c0-0.1,0.1-0.2,0.2-0.6
			c0-0.2,0-0.5,0-0.8v-6.9c0-0.2,0.1-0.2,0.2-0.2l1-0.2c0,0,0.1,0,0.2,0c0.1,0,0.1,0,0.1,0.3V50.5z M168.8,54.9
			c0.1,0.1,0.3,0.3,0.6,0.3c1.1,0,1.3-1.1,1.3-2.1c0-1-0.2-1.9-1.1-1.9c-0.4,0-0.7,0.3-0.9,0.4V54.9z"/>
		<path id="XMLID_5414_" class="st0" d="M176.6,56.1c0,0.1,0,0.2-0.2,0.2h-1.2c-0.1,0-0.2,0-0.2-0.2v-4.8h-1c-0.1,0-0.2,0-0.2-0.2
			v-0.8c0-0.1,0-0.2,0.2-0.2h2.4c0.1,0,0.2,0,0.2,0.2V56.1z M175.8,49.3c-0.6,0-1-0.5-1-1c0-0.6,0.5-1,1-1c0.6,0,1,0.4,1,1
			C176.8,48.9,176.3,49.3,175.8,49.3"/>
		<path id="XMLID_5411_" class="st0" d="M183.6,55.6c0,0,0,0.1,0,0.1c0,0.3-1.2,0.7-2.2,0.7c-1.6,0-2.8-0.9-2.8-3.2
			c0-2,1.1-3.3,2.7-3.3c2.1,0,2.5,1.9,2.5,3.4c0,0.2-0.1,0.3-0.3,0.3h-3.3c0,0.7,0.2,1.5,1.4,1.5c0.9,0,1.4-0.4,1.6-0.4
			c0.1,0,0.1,0,0.1,0.1L183.6,55.6z M182.2,52.5c0-0.5,0-1.4-0.9-1.4c-1,0-1,1-1.1,1.4H182.2z"/>
		<path id="XMLID_5410_" class="st0" d="M190.8,56.1c0,0.1,0,0.2-0.2,0.2h-1.2c-0.1,0-0.2,0-0.2-0.2v-3.8c0-0.5-0.1-1-0.7-1
			c-0.5,0-0.9,0.4-1.1,0.5v4.3c0,0.1,0,0.2-0.2,0.2H186c-0.1,0-0.2,0-0.2-0.2v-3.7c0-1.7-0.2-1.6-0.2-1.9c0-0.1,0-0.1,0.1-0.1
			l0.9-0.3c0.1,0,0.1,0,0.2,0c0.2,0,0.3,0.3,0.4,0.9c0.4-0.3,0.9-0.9,1.9-0.9c0.7,0,1.6,0.3,1.6,1.8V56.1z"/>
		<path id="XMLID_5409_" class="st0" d="M196.9,55.9C196.9,55.9,196.9,55.9,196.9,55.9c0,0.3-0.9,0.6-1.7,0.6
			c-1.6,0-1.6-1.2-1.6-2.4v-2.8h-0.9c-0.1,0-0.2,0-0.2-0.2v-0.8c0-0.1,0-0.2,0.2-0.2h0.9v-1.6c0-0.2,0-0.2,0.2-0.2l1.1-0.1
			c0,0,0.1,0,0.2,0c0.1,0,0.1,0.1,0.1,0.2v1.7h1.4c0.1,0,0.2,0,0.2,0.1c0,0,0,0.1,0,0.1l-0.2,0.7c0,0.2-0.1,0.2-0.2,0.2h-1.2v3
			c0,0.4,0,0.8,0.4,0.8c0.5,0,0.8-0.2,1-0.2c0,0,0.1,0,0.1,0.1L196.9,55.9z"/>
		<path id="XMLID_5403_" class="st0" d="M202.2,56.4c0,0-0.1,0.1-0.2,0.1c-0.1,0-0.3-0.4-0.4-0.7c-0.2,0.2-0.7,0.7-1.6,0.7
			c-1.1,0-1.9-0.7-1.9-1.9c0-2.1,2.3-2.1,3.2-2.1v-0.4c0-0.6-0.1-0.9-0.9-0.9c-0.7,0-1.4,0.4-1.5,0.4c-0.1,0-0.1-0.1-0.1-0.1
			l-0.2-0.8c0,0,0-0.1,0-0.1c0-0.3,1.2-0.6,2.2-0.6c1.5,0,2.1,0.7,2.1,2v2.4c0,1.2,0.3,1.4,0.3,1.6c0,0,0,0.1-0.1,0.1L202.2,56.4z
			 M201.5,53.5c-0.3,0-1.7-0.1-1.7,1c0,0.5,0.3,0.8,0.8,0.8c0.5,0,0.8-0.3,0.9-0.5V53.5z"/>
		<path id="XMLID_5400_" class="st0" d="M208,56C208,56.1,208,56.1,208,56c0,0.3-0.6,0.4-1.2,0.4c-1.5,0-1.5-1.2-1.5-2.4v-6.3
			c0-0.2,0.1-0.2,0.2-0.2l1-0.2c0,0,0.1,0,0.2,0c0.1,0,0.1,0,0.1,0.3v6.7c0,0.4,0,0.7,0.3,0.7c0.2,0,0.4-0.1,0.5-0.1
			c0,0,0.1,0,0.1,0.1L208,56z"/>
	</g>
</g>
</svg>
